<svg width="75" height="75" viewBox="0 0 75 75" fill="none" xmlns="http://www.w3.org/2000/svg">
<mask id="mask0_23_24" style="mask-type:luminance" maskUnits="userSpaceOnUse" x="0" y="0" width="75" height="75">
<path d="M18.9975 70.0794C24.2789 73.0753 30.6165 74.3813 37.4151 73.4787C30.5973 74.3813 24.2789 73.0753 18.9975 70.0794C17.9796 69.484 16.616 68.6774 15.6942 67.9668C14.9068 67.3715 13.8505 66.5648 13.0823 65.9119C12.4678 65.3933 11.6419 64.6635 11.085 64.0682C10.4128 63.3768 9.52938 62.4358 8.89562 61.706C8.33867 61.0722 7.64729 60.1696 7.16716 59.4974C6.37976 58.4219 5.18904 56.655 4.01754 54.3312C1.84737 50.0101 0.90632 46.0539 0.503014 43.4996C0.214939 41.6943 0.0228882 39.2745 0.0228882 37.45C0.0420932 34.9149 0.157323 34.0507 0.560629 31.1315C0.695064 30.1521 1.00235 28.8846 1.25201 27.9435C1.48247 27.0985 1.82816 25.9654 2.11624 25.1396C3.01887 22.5853 3.94072 20.8184 4.61289 19.5509C5.07381 18.6675 5.7844 17.5536 6.32214 16.7278C6.78306 16.0172 7.47444 15.1337 7.97377 14.4424C8.58834 13.5973 9.52938 12.5795 10.24 11.8113C10.7969 11.2159 11.5651 10.4477 12.1797 9.89077C13.0439 9.12257 14.2154 8.16231 15.1373 7.45173C16.52 6.37624 17.922 5.56963 19.4008 4.70541C20.5147 4.05243 22.0703 3.32264 23.2802 2.84252C24.0676 2.53524 25.1047 2.13193 25.9113 1.88226C26.7179 1.61339 27.8318 1.30611 28.6576 1.11406C29.445 0.922012 30.4821 0.691552 31.2695 0.576322C32.345 0.403476 32.7099 0.345861 34.4191 0.173016C34.4575 0.173016 35.4946 0.0769905 36.9734 0.0577854C38.0297 0.0385804 38.9707 0.0769906 39.4124 0.0961957C39.9502 0.115401 41.1985 0.211426 42.0243 0.326656C43.3687 0.499502 43.6759 0.557116 45.0971 0.825987C46.1726 1.03724 48.2659 1.57498 49.5719 2.05511C50.5706 2.42001 52.2606 3.01536 54.0467 3.918C55.9864 4.89746 57.6188 5.85771 58.8671 6.76034C60.1347 7.68219 61.575 8.71926 63.3803 10.4477C65.3584 12.349 66.722 14.0391 67.3558 14.8841C68.0087 15.7483 69.2186 17.3615 70.6014 19.935C71.4272 21.4714 72.2915 23.6224 72.9252 25.2548C73.2709 26.1574 73.6166 27.4058 73.8471 28.3468C74.0583 29.211 74.2696 30.3825 74.4616 31.266C74.6537 32.2262 74.7881 33.5514 74.8649 34.5308C74.961 35.6447 75.0378 37.1427 74.9802 38.2566C74.9225 39.1785 74.8841 40.3884 74.7881 41.3102C74.6921 42.2897 74.5384 43.6148 74.308 44.5751C74.1159 45.4393 73.8855 46.6108 73.6358 47.4558C73.3669 48.3969 72.9636 49.6644 72.6179 50.5862C71.4656 53.6783 70.1021 55.9829 69.9484 56.2325C69.0842 57.6921 67.7783 59.5358 66.7604 60.8993C66.1266 61.7252 65.1664 62.743 64.475 63.5112C63.9373 64.1258 63.1306 64.8556 62.5161 65.3933C61.6327 66.1615 60.4419 67.141 59.5201 67.8132C58.7903 68.3509 57.7916 69.0231 57.0234 69.484C55.9095 70.137 54.3924 70.9628 53.2208 71.5197C52.203 72.0191 49.8984 72.9601 47.6706 73.5747C46.6335 73.8627 43.9064 74.5925 40.5839 74.8614C38.9131 74.9958 36.3012 75.1111 32.9787 74.7078C31.8841 74.5733 30.9814 74.4197 30.9814 74.4005C30.0596 74.2277 30.0596 74.2276 28.5616 73.882C27.4093 73.6131 26.0265 73.1522 25.4312 72.9601C24.6437 72.7104 23.6259 72.3263 22.8769 71.9807C21.6478 71.4429 20.1306 70.6747 18.9975 70.0794Z" fill="white"/>
</mask>
<g mask="url(#mask0_23_24)">
<path d="M41.5825 74.7654C40.219 74.7654 38.7978 74.3621 37.3958 73.5747C28.7728 74.727 20.5722 72.3456 14.3114 66.8529C11.0081 63.953 8.41544 60.3616 6.59096 56.1749C4.70887 51.8346 3.76782 47.0717 3.76782 42.0208V41.848L3.90226 41.9248C12.9862 47.0909 35.4369 49.2419 53.9698 46.7644L54.085 46.7452V46.8605C54.0658 60.2848 50.6473 70.5979 45.1739 73.7859C44.0024 74.4389 42.8117 74.7654 41.5825 74.7654ZM37.4151 73.3634L37.4343 73.3826C40.123 74.8998 42.6772 74.9767 45.0202 73.6131C50.4169 70.4827 53.7969 60.2656 53.8354 46.9565C35.3985 49.4147 13.0823 47.2638 3.90226 42.1552C3.92146 47.1293 4.86251 51.7962 6.70619 56.0789C8.51147 60.2464 11.1041 63.8185 14.3882 66.6801C20.6106 72.1343 28.7728 74.5157 37.3574 73.3634H37.4151Z" fill="#EFD9FF"/>
<path d="M37.5687 73.9012C30.5205 73.9012 23.7027 72.8065 20.3994 70.9244L20.4954 70.7515C25.0662 73.3442 36.3972 74.4389 45.7309 73.1906L45.7501 73.3826C43.119 73.7283 40.315 73.9012 37.5687 73.9012Z" fill="#EFD9FF"/>
<path d="M37.6839 64.7212C25.6232 64.7212 14.0041 62.8391 8.33862 59.6318L8.43465 59.459C16.2703 63.9146 35.6482 65.7774 51.646 63.6265L51.6652 63.8185C47.1904 64.4331 42.4084 64.7212 37.6839 64.7212Z" fill="#EFD9FF"/>
<path d="M32.5562 74.5925C30.386 74.5925 28.3119 73.9588 26.4106 72.6912C20.2842 68.6006 16.6352 58.6716 16.6544 46.1307H16.8465C16.8273 58.5947 20.4378 68.4661 26.5066 72.5376C29.7523 74.7078 33.4972 74.9959 37.3575 73.4018L37.4343 73.5747C35.7826 74.2469 34.1502 74.5925 32.5562 74.5925Z" fill="#EFD9FF"/>
<path d="M36.6468 75.0343C36.6276 75.0343 36.6276 75.0343 36.6084 75.0343C35.1104 74.8422 34.6111 60.2656 34.6303 47.8591H34.8223C34.7839 65.4125 35.7058 74.727 36.6276 74.8422C36.7044 74.8422 36.9541 74.7846 37.2998 73.4402L37.4918 73.4979C37.223 74.5541 36.9541 75.0343 36.6468 75.0343Z" fill="#EFD9FF"/>
<path d="M41.5826 74.7654C40.1998 74.7654 38.7786 74.3621 37.3575 73.5555L37.1078 73.421L37.3959 73.3826C41.4481 72.8449 45.3275 71.5389 48.9381 69.6376C52.0301 64.7596 53.8546 56.6358 53.8738 46.8605V46.7836L53.9506 46.7644C60.6724 45.8618 66.1266 44.4406 69.7756 42.7122C70.563 39.5625 71.0047 36.2785 71.0047 32.9752V32.8024L71.1391 32.8792C74.0007 34.4924 75.3066 36.3169 74.9609 38.1222C74.6344 39.8122 72.8676 41.4254 69.9292 42.8274C66.9908 54.3888 59.136 64.4523 49.0533 69.7913C47.901 71.5773 46.5951 72.9409 45.1355 73.7859C44.0024 74.4389 42.8117 74.7654 41.5826 74.7654ZM37.7031 73.5171C40.2958 74.8998 42.7541 74.9382 45.0395 73.6131C46.403 72.8257 47.6321 71.5773 48.7268 69.9641C45.2699 71.7502 41.5634 72.9793 37.7031 73.5171ZM54.0466 46.9373C54.0274 56.5206 52.2606 64.5291 49.2454 69.4456C59.0976 64.1258 66.7796 54.2544 69.6987 42.9234C66.0498 44.6327 60.6724 46.0538 54.0466 46.9373ZM71.1967 33.1289C71.1775 36.3553 70.755 39.5241 70.006 42.5969C72.7907 41.2334 74.4808 39.697 74.7881 38.0838C75.1146 36.3937 73.8662 34.6845 71.1967 33.1289Z" fill="#EFD9FF"/>
<path d="M45.75 73.3826L45.7308 73.1906C51.838 72.3647 55.8519 70.7131 56.2168 68.8502C56.3896 68.0052 55.7367 67.141 54.3539 66.3536L54.4499 66.1807C55.9095 67.0065 56.5817 67.9476 56.4088 68.8694C56.0055 70.8283 51.9341 72.5568 45.75 73.3826Z" fill="#EFD9FF"/>
<path d="M51.6844 63.8377L51.6652 63.6457C62.132 62.2437 69.0266 59.3629 69.6411 56.1557C69.9292 54.6769 68.8153 53.1789 66.4147 51.8154L66.5107 51.6425C68.9882 53.0445 70.1213 54.6193 69.814 56.1749C69.1994 59.4782 62.2472 62.4165 51.6844 63.8377Z" fill="#EFD9FF"/>
<path d="M42.3892 74.0356C40.7376 74.0356 39.0667 73.8819 37.3959 73.5746L37.4343 73.3826C45.0203 74.7846 52.3182 72.9793 58.0221 68.2548C64.7246 62.6854 68.5849 53.6014 68.6041 43.3075H68.7961C68.7769 53.659 64.8975 62.8006 58.1373 68.4085C53.6625 72.0959 48.1891 74.0356 42.3892 74.0356Z" fill="#EFD9FF"/>
<path d="M38.2793 73.5746C37.9912 73.5746 37.6839 73.5746 37.3959 73.5554V73.3634C47.613 73.5938 57.1579 69.8873 64.2637 62.9543C70.9855 56.3861 74.7113 47.6286 74.7305 38.295H74.9225C74.9033 47.667 71.1775 56.4822 64.3982 63.0887C57.4651 69.8681 48.2275 73.5746 38.2793 73.5746Z" fill="#EFD9FF"/>
<path d="M37.3767 73.5747L37.3575 73.5555C28.2351 68.3701 20.8411 47.9936 20.8795 28.1164V28.0395L20.9564 28.0203C39.5084 25.5237 62.0359 27.6939 71.1391 32.8792L71.1967 32.8984V32.956C71.1583 52.8332 56.0056 71.0588 37.4151 73.5555L37.3767 73.5747ZM21.0716 28.2124C21.0524 47.9744 28.3695 68.2165 37.4151 73.3826C55.8903 70.886 70.9279 52.7948 71.0047 33.0329C61.9015 27.8859 39.5468 25.7349 21.0716 28.2124Z" fill="#EFD9FF"/>
<path d="M54.3347 66.3536C49.7639 63.7609 38.4329 62.6662 29.0993 63.9146L29.0801 63.7225C38.4521 62.455 49.8407 63.5689 54.4307 66.1807L54.3347 66.3536Z" fill="#EFD9FF"/>
<path d="M66.4339 51.8346C58.5983 47.379 39.2204 45.5162 23.2226 47.6671L23.2034 47.4751C39.2396 45.3241 58.6751 47.2062 66.5491 51.681L66.4339 51.8346Z" fill="#EFD9FF"/>
<path d="M37.4343 73.5555L37.3575 73.3826C48.7461 68.639 58.0413 48.6658 58.0797 28.8654H58.2718C58.2526 48.7234 48.8997 68.7926 37.4343 73.5555Z" fill="#EFD9FF"/>
<path d="M37.4919 73.4978L37.2999 73.4402C38.7979 67.7363 40.0654 46.9373 40.1038 27.1177H40.2959C40.2574 46.9565 39.0091 67.7747 37.4919 73.4978Z" fill="#EFD9FF"/>
<path d="M33.1708 73.8436C26.1033 73.8436 19.5352 71.4238 14.2922 66.8337C10.9889 63.9338 8.39626 60.3424 6.57178 56.1557C4.68969 51.8346 3.74864 47.091 3.74864 42.0592C0.9255 40.446 -0.380443 38.6407 -0.0347519 36.8547C0.69504 33.0521 8.74195 29.672 20.9756 28.0204L21.0908 28.0012V28.1164C21.0524 47.9168 28.4079 68.2357 37.4727 73.3827L37.7224 73.5171L37.4343 73.5555C35.9939 73.7476 34.5727 73.8436 33.1708 73.8436ZM20.8795 28.2316C8.79957 29.864 0.867885 33.1865 0.157299 36.8931C-0.169187 38.6023 1.11755 40.35 3.88308 41.9248L3.94069 41.944V42.0016C3.94069 47.0334 4.88174 51.777 6.74463 56.0789C8.5499 60.2464 11.1426 63.8186 14.4266 66.6801C20.5915 72.0767 28.6384 74.4581 37.127 73.3827C28.1198 68.0245 20.8795 47.8976 20.8795 28.2316Z" fill="#EFD9FF"/>
<path d="M20.3994 70.9244C18.9399 70.0986 18.2677 69.1576 18.4405 68.2357C18.8246 66.296 22.8961 64.5676 29.0801 63.7418L29.0993 63.9338C22.9921 64.7596 18.9783 66.4113 18.6134 68.2741C18.4405 69.1192 19.0935 69.9834 20.4763 70.7708L20.3994 70.9244Z" fill="#EFD9FF"/>
<path d="M8.35786 59.6319C5.88041 58.2299 4.74731 56.6551 5.05459 55.0995C5.68836 51.8154 12.6406 48.877 23.2034 47.4559L23.2226 47.6479C12.7558 49.0499 5.8612 51.9306 5.24664 55.1379C4.95857 56.6167 6.07246 58.1147 8.47309 59.4782L8.35786 59.6319Z" fill="#EFD9FF"/>
<path d="M37.3767 73.5555C20.1305 70.3483 6.13006 51.5658 6.16847 31.6885H6.36053C6.32212 51.4889 20.265 70.1946 37.4343 73.3827L37.3767 73.5555Z" fill="#EFD9FF"/>
<path d="M37.3959 73.5747C16.7505 73.1138 -0.0347432 56.559 0.00366686 36.6818H0.195717C0.157307 56.463 16.8465 72.9409 37.3959 73.3827V73.5747Z" fill="#EFD9FF"/>
<path d="M37.7608 47.9936C23.7987 47.9936 10.336 45.8234 3.78705 42.0977L3.72943 42.0785V42.0208C3.78705 22.1244 18.9398 3.91804 37.5303 1.42139H37.5687L37.5879 1.44059C46.7103 6.62595 54.1042 27.0025 54.0658 46.8797V46.9565L53.989 46.9757C48.746 47.6479 43.215 47.9936 37.7608 47.9936ZM3.94069 41.9632C13.0439 47.091 35.3985 49.2419 53.8738 46.7837C53.893 27.0217 46.5759 6.77959 37.5303 1.61344C19.0551 4.11009 3.9983 22.2012 3.94069 41.9632Z" fill="#EFD9FF"/>
<path d="M37.7608 28.4045C25.7 28.4045 14.081 26.5224 8.41547 23.3151L8.51149 23.1423C16.3471 27.5978 35.725 29.4607 51.7228 27.3098L51.742 27.5018C47.2481 28.1164 42.466 28.4045 37.7608 28.4045Z" fill="#EFD9FF"/>
<path d="M37.684 11.7729C30.6357 11.7729 23.8179 10.6782 20.5146 8.79614L20.6107 8.62329C25.1815 11.216 36.5124 12.3107 45.8461 11.0623L45.8653 11.2544C43.2342 11.6001 40.4303 11.7729 37.684 11.7729Z" fill="#EFD9FF"/>
<path d="M16.8465 46.1307H16.6544C16.6928 26.2535 26.0457 6.18424 37.4919 1.42139L37.5687 1.59423C26.1801 6.33788 16.8849 26.3111 16.8465 46.1307Z" fill="#EFD9FF"/>
<path d="M34.8224 47.8592H34.6304C34.6688 28.0204 35.9171 7.20211 37.4343 1.479L37.6264 1.53662C36.1284 7.24052 34.8608 28.0204 34.8224 47.8592Z" fill="#EFD9FF"/>
<path d="M53.8546 46.9757V46.8605C53.893 27.0601 46.5375 6.74114 37.4727 1.59419L37.223 1.45976L37.5111 1.42135C46.1534 0.249841 54.3731 2.65047 60.634 8.14311C63.9372 11.0431 66.5299 14.6344 68.3544 18.8211C70.2365 23.1423 71.1775 27.8859 71.1775 32.9176C74.0007 34.5308 75.3066 36.3361 74.9609 38.1222C74.2311 41.9248 66.1842 45.3049 53.9506 46.9565L53.8546 46.9757ZM37.8184 1.57499C46.8063 6.97161 54.0466 27.0985 54.0466 46.7645C66.1266 45.132 74.0583 41.8096 74.7689 38.103C75.0954 36.3937 73.8086 34.6461 71.0431 33.0713L70.9855 33.052V32.9944C70.9855 27.9627 70.0444 23.2191 68.1815 18.9171C66.3763 14.7496 63.7836 11.1775 60.4995 8.31596C54.3539 2.88093 46.307 0.499506 37.8184 1.57499Z" fill="#EFD9FF"/>
<path d="M51.7612 27.521L51.742 27.329C62.2088 25.927 69.1034 23.0462 69.7179 19.839C70.006 18.3602 68.8921 16.8622 66.4915 15.4986L66.5875 15.3258C69.065 16.7278 70.198 18.3026 69.8908 19.8582C69.257 23.1615 62.3048 26.0998 51.7612 27.521Z" fill="#EFD9FF"/>
<path d="M45.8653 11.2352L45.8461 11.0431C51.9533 10.2173 55.9671 8.56565 56.332 6.70276C56.5049 5.85774 55.8519 4.99351 54.4691 4.20611L54.5652 4.03326C56.0247 4.85908 56.6969 5.80013 56.5241 6.72197C56.1208 8.68088 52.0493 10.4093 45.8653 11.2352Z" fill="#EFD9FF"/>
<path d="M68.7769 43.2884H68.5849C68.6233 23.488 54.6804 4.78225 37.5111 1.59421L37.5495 1.40216C54.8148 4.62861 68.8153 23.4111 68.7769 43.2884Z" fill="#EFD9FF"/>
<path d="M74.9225 38.3142H74.7305C74.7689 18.533 58.0797 2.05509 37.5303 1.61338V1.42133C58.195 1.86304 74.961 18.4178 74.9225 38.3142Z" fill="#EFD9FF"/>
<path d="M71.1967 33.1289L71.0623 33.0521C61.9783 27.8859 39.5276 25.7349 20.9947 28.2124L20.8795 28.2316V28.1164C20.8987 14.692 24.3172 4.37894 29.7907 1.1909C32.1721 -0.191863 34.8416 -0.115043 37.5495 1.40216C46.1726 0.249853 54.3731 2.63128 60.6339 8.12392C63.9372 11.0239 66.5299 14.6152 68.3544 18.8019C70.2365 23.1423 71.1967 27.9051 71.1775 32.956L71.1967 33.1289ZM37.1654 26.9833C51.0122 26.9833 64.3981 29.115 71.0047 32.8024C70.9855 27.8283 70.0444 23.1615 68.2007 18.8787C66.3955 14.7112 63.8028 11.1391 60.5187 8.27756C54.2963 2.82333 46.1341 0.441903 37.5495 1.59421H37.5111L37.4919 1.575C34.8032 0.0578028 32.2681 -0.0190174 29.9059 1.34454C24.5093 4.47496 21.1292 14.692 21.0908 28.0011C26.2569 27.3098 31.7496 26.9833 37.1654 26.9833Z" fill="#EFD9FF"/>
<path d="M66.4915 15.4987C58.6558 11.0431 39.2779 9.18021 23.2801 11.3312L23.2609 11.1391C39.2971 8.98816 58.7326 10.8703 66.6067 15.345L66.4915 15.4987Z" fill="#EFD9FF"/>
<path d="M54.4499 4.22529C49.8791 1.61341 38.5674 0.537926 29.2145 1.78625L29.1953 1.5942C38.5674 0.326671 49.956 1.44056 54.546 4.05245L54.4499 4.22529Z" fill="#EFD9FF"/>
<path d="M58.2717 28.8461H58.0797C58.0989 16.3821 54.4883 6.51069 48.4195 2.43922C45.1739 0.269049 41.4289 -0.0190268 37.5687 1.57499L37.4919 1.40215C41.4097 -0.230282 45.2123 0.0769979 48.5156 2.28558C54.6612 6.39546 58.3101 16.3245 58.2717 28.8461Z" fill="#EFD9FF"/>
<path d="M40.2958 27.1177H40.1038C40.1422 9.5643 39.2203 0.249857 38.2985 0.134626C38.2217 0.134626 37.972 0.192241 37.6263 1.53659L37.4343 1.47898C37.7223 0.365087 38.0104 -0.0958341 38.3177 -0.057424C39.8157 0.134626 40.315 14.692 40.2958 27.1177Z" fill="#EFD9FF"/>
<path d="M3.94067 42.1745L3.80623 42.0977C0.944681 40.4844 -0.361261 38.66 -0.0155703 36.8547C0.310915 35.1646 2.07778 33.5514 5.01615 32.1494C7.93532 20.588 15.7902 10.5246 25.8728 5.18557C27.0251 3.3995 28.3311 2.03595 29.7907 1.19092C32.1721 -0.191838 34.8608 -0.115018 37.5687 1.42138L37.8184 1.55582L37.5303 1.59423C33.478 2.13197 29.5986 3.43791 25.9881 5.33921C22.896 10.2173 21.0716 18.341 21.0524 28.1164V28.1932L20.9755 28.2124C14.2538 29.1151 8.79954 30.5362 5.15059 32.2647C4.36318 35.4143 3.92146 38.6984 3.92146 42.0016L3.94067 42.1745ZM4.93933 32.3799C2.1546 33.7435 0.464556 35.2799 0.157275 36.8931C-0.16921 38.5831 1.07912 40.2924 3.74862 41.848C3.76782 38.6215 4.17113 35.4527 4.93933 32.3799ZM25.6808 5.51206C15.8286 10.8319 8.14657 20.7032 5.22741 32.0342C8.87636 30.325 14.273 28.923 20.8795 28.0204C20.9179 18.437 22.6656 10.4478 25.6808 5.51206ZM33.3628 0.384313C32.1721 0.384313 31.0006 0.710799 29.8867 1.36377C28.5231 2.15118 27.294 3.3995 26.1993 5.01273C29.6562 3.22666 33.3628 1.99754 37.223 1.44059C35.9171 0.749208 34.6111 0.384313 33.3628 0.384313Z" fill="#EFD9FF"/>
<path d="M8.41541 23.3152C5.93796 21.9132 4.80487 20.3384 5.11215 18.7828C5.74591 15.4987 12.6981 12.5603 23.2609 11.1392L23.2801 11.3312C12.8134 12.7332 5.91876 15.6139 5.3042 18.8212C5.01612 20.3 6.13002 21.798 8.53065 23.1615L8.41541 23.3152Z" fill="#EFD9FF"/>
<path d="M20.5146 8.77692C19.055 7.95111 18.3828 7.01006 18.5557 6.08822C18.9398 4.14851 23.0113 2.42006 29.1953 1.59424L29.2145 1.78629C23.1073 2.61211 19.0934 4.26374 18.7285 6.12663C18.5557 6.97165 19.2087 7.83588 20.5914 8.62328L20.5146 8.77692Z" fill="#EFD9FF"/>
<path d="M6.36051 31.6886H6.16846C6.18766 21.337 10.0671 12.1954 16.8273 6.58756C22.5696 1.82471 29.9251 0.000235498 37.5687 1.42141L37.5303 1.61346C29.9443 0.211491 22.6464 2.01676 16.9425 6.7412C10.2399 12.2915 6.37971 21.3947 6.36051 31.6886Z" fill="#EFD9FF"/>
<path d="M0.195713 36.6626H0.00366211C0.0228671 27.2906 3.74864 18.4755 10.528 11.8689C17.6723 4.89749 27.2556 1.19092 37.5303 1.40217V1.59422C27.3132 1.36376 17.7683 5.07034 10.6625 12.0034C3.9407 18.5715 0.214918 27.329 0.195713 36.6626Z" fill="#EFD9FF"/>
</g>
<mask id="mask1_23_24" style="mask-type:luminance" maskUnits="userSpaceOnUse" x="0" y="0" width="75" height="75">
<path d="M18.9975 70.0794C24.2789 73.0753 30.6165 74.3813 37.4151 73.4787C30.5973 74.3813 24.2789 73.0753 18.9975 70.0794C17.9796 69.484 16.616 68.6774 15.6942 67.9668C14.9068 67.3715 13.8505 66.5648 13.0823 65.9119C12.4678 65.3933 11.6419 64.6635 11.085 64.0682C10.4128 63.3768 9.52938 62.4358 8.89562 61.706C8.33867 61.0722 7.64729 60.1696 7.16716 59.4974C6.37976 58.4219 5.18904 56.655 4.01754 54.3312C1.84737 50.0101 0.90632 46.0539 0.503014 43.4996C0.214939 41.6943 0.0228882 39.2745 0.0228882 37.45C0.0420932 34.9149 0.157323 34.0507 0.560629 31.1315C0.695064 30.1521 1.00235 28.8846 1.25201 27.9435C1.48247 27.0985 1.82816 25.9654 2.11624 25.1396C3.01887 22.5853 3.94072 20.8184 4.61289 19.5509C5.07381 18.6675 5.7844 17.5536 6.32214 16.7278C6.78306 16.0172 7.47444 15.1337 7.97377 14.4424C8.58834 13.5973 9.52938 12.5795 10.24 11.8113C10.7969 11.2159 11.5651 10.4477 12.1797 9.89077C13.0439 9.12257 14.2154 8.16231 15.1373 7.45173C16.52 6.37624 17.922 5.56963 19.4008 4.70541C20.5147 4.05243 22.0703 3.32264 23.2802 2.84252C24.0676 2.53524 25.1047 2.13193 25.9113 1.88226C26.7179 1.61339 27.8318 1.30611 28.6576 1.11406C29.445 0.922012 30.4821 0.691552 31.2695 0.576322C32.345 0.403476 32.7099 0.345861 34.4191 0.173016C34.4575 0.173016 35.4946 0.0769905 36.9734 0.0577854C38.0297 0.0385804 38.9707 0.0769906 39.4124 0.0961957C39.9502 0.115401 41.1985 0.211426 42.0243 0.326656C43.3687 0.499502 43.6759 0.557116 45.0971 0.825987C46.1726 1.03724 48.2659 1.57498 49.5719 2.05511C50.5706 2.42001 52.2606 3.01536 54.0467 3.918C55.9864 4.89746 57.6188 5.85771 58.8671 6.76034C60.1347 7.68219 61.575 8.71926 63.3803 10.4477C65.3584 12.349 66.722 14.0391 67.3558 14.8841C68.0087 15.7483 69.2186 17.3615 70.6014 19.935C71.4272 21.4714 72.2915 23.6224 72.9252 25.2548C73.2709 26.1574 73.6166 27.4058 73.8471 28.3468C74.0583 29.211 74.2696 30.3825 74.4616 31.266C74.6537 32.2262 74.7881 33.5514 74.8649 34.5308C74.961 35.6447 75.0378 37.1427 74.9802 38.2566C74.9225 39.1785 74.8841 40.3884 74.7881 41.3102C74.6921 42.2897 74.5384 43.6148 74.308 44.5751C74.1159 45.4393 73.8855 46.6108 73.6358 47.4558C73.3669 48.3969 72.9636 49.6644 72.6179 50.5862C71.4656 53.6783 70.1021 55.9829 69.9484 56.2325C69.0842 57.6921 67.7783 59.5358 66.7604 60.8993C66.1266 61.7252 65.1664 62.743 64.475 63.5112C63.9373 64.1258 63.1306 64.8556 62.5161 65.3933C61.6327 66.1615 60.4419 67.141 59.5201 67.8132C58.7903 68.3509 57.7916 69.0231 57.0234 69.484C55.9095 70.137 54.3924 70.9628 53.2208 71.5197C52.203 72.0191 49.8984 72.9601 47.6706 73.5747C46.6335 73.8627 43.9064 74.5925 40.5839 74.8614C38.9131 74.9958 36.3012 75.1111 32.9787 74.7078C31.8841 74.5733 30.9814 74.4197 30.9814 74.4005C30.0596 74.2277 30.0596 74.2276 28.5616 73.882C27.4093 73.6131 26.0265 73.1522 25.4312 72.9601C24.6437 72.7104 23.6259 72.3263 22.8769 71.9807C21.6478 71.4429 20.1306 70.6747 18.9975 70.0794Z" fill="white"/>
</mask>
<g mask="url(#mask1_23_24)">
<path d="M37.4535 75.0535C36.1475 75.0535 34.6303 74.9767 32.9211 74.7846C31.8264 74.6502 30.9238 74.4773 30.9046 74.4773C29.9827 74.3045 29.9827 74.3045 28.4847 73.9588C27.3324 73.6899 25.9305 73.229 25.3351 73.037C24.4709 72.7489 23.453 72.3648 22.7616 72.0575C22.2431 71.827 21.6861 71.5582 21.1292 71.2893C20.3802 70.9436 19.6312 70.5787 18.9206 70.1562L18.8822 70.137C17.8836 69.5416 16.5392 68.735 15.5982 68.0436C14.8684 67.4867 13.7545 66.6417 12.9863 65.9887C12.6982 65.739 11.6995 64.8748 10.9889 64.145L10.8545 64.0106C10.2015 63.3192 9.37572 62.4742 8.79957 61.7828C8.28103 61.1682 7.58965 60.304 7.05191 59.5742C5.8612 57.9418 4.80492 56.1941 3.88308 54.3889C1.71291 50.0677 0.77186 46.0923 0.368554 43.5188C0.0804781 41.6367 -0.111572 39.1977 -0.111572 37.45C-0.0923672 34.915 0.0228629 34.0315 0.426169 31.1124C0.560604 30.1137 0.88709 28.8077 1.11755 27.9051C1.32881 27.0985 1.6745 25.9846 1.98178 25.082C2.88441 22.5085 3.80626 20.7608 4.47843 19.4741C4.99697 18.4946 5.78437 17.2847 6.20689 16.651C6.53337 16.1516 6.95588 15.5947 7.35919 15.0377C7.53203 14.8073 7.70488 14.5768 7.85852 14.3656C8.47308 13.5205 9.39492 12.5219 10.1247 11.7345C10.7585 11.0623 11.5267 10.3133 12.0644 9.81396C12.871 9.10338 14.0233 8.14312 15.022 7.37492C16.424 6.29944 17.8067 5.47362 19.3047 4.6094C20.3994 3.97563 21.9742 3.22663 23.1841 2.74651C24.3172 2.30479 25.1815 1.97831 25.8152 1.78626C26.6218 1.51739 27.7165 1.2101 28.5616 1.01805C29.445 0.806799 30.4629 0.595544 31.1926 0.480313C32.2681 0.307468 32.633 0.249853 34.3615 0.0770078C34.3999 0.0770078 35.437 -0.0190178 36.9157 -0.0382229C37.972 -0.0574279 38.9131 -0.0190177 39.3548 0.000187371C39.8925 0.0193924 41.1409 0.115418 41.9859 0.230648C43.3302 0.403493 43.6375 0.461108 45.0587 0.729979C46.1342 0.941234 48.2467 1.49818 49.5527 1.9591C50.5513 2.324 52.2414 2.91935 54.0466 3.82199C56.0056 4.82065 57.6188 5.7617 58.8671 6.66434C60.1346 7.58618 61.575 8.62325 63.3803 10.3517C65.3584 12.253 66.722 13.9622 67.3557 14.8073C68.0087 15.6715 69.2186 17.2847 70.6014 19.8774C71.4272 21.433 72.3298 23.6224 72.9252 25.1972C73.1941 25.9078 73.5014 26.9257 73.847 28.2892C74.0007 28.8846 74.1351 29.6144 74.2696 30.3057C74.3272 30.613 74.3848 30.9203 74.4424 31.2084C74.596 31.9574 74.7305 33.0329 74.8457 34.4732C74.9225 35.5487 75.0186 37.0659 74.9609 38.2182C74.9417 38.4679 74.9417 38.7368 74.9225 39.0056C74.8841 39.7546 74.8457 40.5996 74.7881 41.2718C74.6921 42.1937 74.5384 43.5572 74.308 44.5559C74.2504 44.7671 74.2119 45.0168 74.1543 45.2665C74.0007 45.9963 73.8086 46.8029 73.6358 47.4558C73.3477 48.4545 72.9444 49.722 72.6179 50.5863C71.4656 53.6975 70.1021 56.0021 69.9484 56.2518C69.0074 57.8266 67.6438 59.7471 66.7604 60.9186C66.2803 61.5523 65.6081 62.2821 65.0127 62.9159C64.8207 63.1272 64.6286 63.3384 64.4558 63.5305C63.8796 64.1642 63.073 64.9324 62.4969 65.4318C62.0936 65.7775 60.6916 66.9874 59.4817 67.8708C59.136 68.1205 57.9645 68.9655 56.9658 69.5416C55.8519 70.1946 54.3347 71.0204 53.144 71.5774C52.1261 72.0767 49.8023 73.0177 47.5745 73.6323C46.5375 73.9204 43.7912 74.6694 40.4687 74.919C39.7197 74.9959 38.6826 75.0535 37.4535 75.0535ZM24.8358 72.6529C25.0278 72.7297 25.2199 72.7873 25.4119 72.8449C26.0073 73.037 27.39 73.4979 28.5423 73.7667C30.0211 74.1124 30.0211 74.1124 30.943 74.2661C30.943 74.2661 31.8648 74.4389 32.9403 74.5734C36.2628 74.9767 38.8555 74.8422 40.5263 74.727C43.8296 74.4773 46.5759 73.7283 47.5938 73.4403C49.8215 72.8257 52.1261 71.8847 53.1248 71.4045C54.2963 70.8284 55.8135 70.0218 56.9274 69.3688C57.9069 68.7926 59.0784 67.9476 59.4241 67.6979C60.6148 66.8337 62.0167 65.6238 62.42 65.2781C62.9962 64.7788 63.8028 64.0298 64.3598 63.396C64.5326 63.204 64.7246 62.9927 64.9167 62.7815C65.5121 62.1477 66.1842 61.4179 66.6451 60.7841C67.5286 59.6126 68.8921 57.6921 69.8332 56.1365C69.9868 55.8869 71.3312 53.6014 72.4835 50.5094C72.81 49.6452 73.2133 48.3777 73.4821 47.3982C73.655 46.7645 73.847 45.9386 74.0007 45.2281C74.0583 44.9784 74.1159 44.7479 74.1543 44.5175C74.3848 43.5188 74.5384 42.1745 74.6345 41.2526C74.7113 40.5804 74.7497 39.7546 74.7689 39.0056C74.7881 38.7368 74.7881 38.4679 74.8073 38.2182C74.8649 37.0851 74.7881 35.5679 74.6921 34.4924C74.5768 33.0521 74.4424 31.9958 74.2888 31.2468C74.2311 30.9779 74.1735 30.6706 74.1159 30.3442C73.9815 29.6528 73.847 28.923 73.6934 28.3468C73.3477 26.9833 73.0404 25.9654 72.7716 25.274C72.1762 23.7184 71.2928 21.529 70.467 19.9734C69.0842 17.4 67.8743 15.7867 67.2405 14.9225C66.6067 14.0775 65.2432 12.3874 63.2843 10.4861C61.479 8.75769 60.0578 7.72061 58.7903 6.81798C57.542 5.91534 55.9287 4.97429 53.989 3.97563C52.203 3.07299 50.5321 2.47764 49.5335 2.11274C48.2275 1.65182 46.1342 1.09487 45.0779 0.902824C43.6567 0.633954 43.3494 0.576339 42.0051 0.403494C41.1601 0.288263 39.9309 0.192238 39.3932 0.173033C38.9515 0.153828 38.0104 0.115418 36.9542 0.134623C35.4946 0.153828 34.4575 0.249853 34.4191 0.249853C32.7098 0.403493 32.3449 0.461109 31.2695 0.653159C30.5589 0.768389 29.5218 0.979645 28.6576 1.1909C27.8126 1.40216 26.7179 1.70944 25.9305 1.9591C25.2967 2.17036 24.4517 2.47764 23.2994 2.91935C22.0895 3.39948 20.5338 4.12927 19.4392 4.76304C17.9604 5.62726 16.5584 6.43388 15.1756 7.50936C14.1962 8.27756 13.0247 9.23781 12.2373 9.9484C11.6803 10.4285 10.9313 11.1775 10.2976 11.8497C9.56777 12.6371 8.64593 13.6358 8.05057 14.4616C7.89693 14.6728 7.72408 14.9033 7.55124 15.1338C7.14793 15.6907 6.72542 16.2477 6.39894 16.747C5.97643 17.3807 5.20822 18.5907 4.68969 19.5701C4.01751 20.8377 3.09567 22.5853 2.19303 25.1588C1.88575 26.0422 1.54006 27.1753 1.32881 27.9627C1.09835 28.8462 0.77186 30.1521 0.637425 31.1508C0.234119 34.0507 0.0996836 34.9342 0.0996836 37.45C0.0996836 39.1785 0.272529 41.6175 0.57981 43.4804C0.983116 46.0347 1.90496 49.9909 4.07513 54.2928C4.97776 56.0789 6.03404 57.8074 7.22475 59.4398C7.74329 60.1696 8.45388 61.053 8.95321 61.6484C9.54856 62.3397 10.3552 63.1848 11.0081 63.8761L11.1426 64.0106C11.8532 64.7404 12.8518 65.6046 13.1399 65.8543C13.9081 66.5072 15.022 67.3523 15.7518 67.89C16.6736 68.5814 18.018 69.388 19.0166 69.9834L19.0551 70.0026C19.6696 70.329 20.457 70.7323 21.2444 71.1164C25.3735 72.9985 29.9059 73.8436 34.6303 73.6323C35.5522 73.5939 36.474 73.4979 37.4151 73.3826L37.4343 73.5747C33.0747 74.1508 28.8112 73.8436 24.8358 72.6529Z" fill="#EFD9FF"/>
</g>
<mask id="mask2_23_24" style="mask-type:luminance" maskUnits="userSpaceOnUse" x="0" y="0" width="75" height="75">
<path d="M42.466 74.6118C39.8733 74.9575 37.7224 74.9767 36.378 74.9383C33.2476 74.823 31.3271 74.4581 29.9059 74.1893C29.2338 74.0548 27.9662 73.7476 27.2364 73.5363C26.2954 73.2674 25.0471 72.8449 24.1252 72.4992C23.453 72.2495 22.5504 71.8655 21.8974 71.5582C21.014 71.1357 19.8617 70.5403 18.9975 70.0794C9.85587 64.8748 3.82548 54.6193 3.84469 42.0208C3.8831 22.1436 18.9783 4.01405 37.5495 1.51739C18.9783 4.01405 3.8831 22.1436 3.84469 42.0208C3.82548 54.6193 9.85587 64.894 18.9975 70.0794C18.9975 70.0794 17.5379 69.3496 14.7916 67.2947C13.7929 66.5457 12.5254 65.451 11.6227 64.6059C10.8545 63.8762 9.85587 62.8775 9.2029 62.0709C8.12741 60.7649 6.76385 58.9597 5.82281 57.5577C5.26586 56.7127 4.61289 55.5412 4.15197 54.6385C3.71025 53.7743 3.1341 52.6028 2.78841 51.7002C2.17385 50.0485 1.46326 47.8207 1.00234 46.1115C0.752676 45.1704 0.522216 43.8645 0.387781 42.8851C0.15732 41.2526 0.0612949 39.0632 0.00367975 37.4308C-0.0155253 36.509 0.0420892 35.2799 0.138114 34.3772C0.23414 33.3978 0.34937 32.0726 0.560626 31.1124C0.752676 30.2481 0.963932 29.0766 1.17519 28.2124C1.42485 27.2714 1.77054 26.023 2.11623 25.1204C2.71159 23.488 3.67184 21.3754 4.44004 19.8198C4.86256 18.9556 5.55394 17.8801 6.07247 17.0735C6.61021 16.2477 7.35921 15.1722 7.97377 14.404C9.03005 13.1364 10.4896 11.4848 11.6611 10.3517C11.9684 10.0444 13.6777 8.412 16.1935 6.66434C17.0386 6.06898 18.2101 5.3584 19.1127 4.83986C19.6696 4.51338 20.4571 4.11007 21.0524 3.82199C22.8193 2.93856 26.5258 1.34454 31.3847 0.518728C33.9774 0.0770122 35.9939 0.0386024 36.9734 0.0193973C38.6826 -0.0190127 40.7952 0.134627 42.0243 0.288267C43.2342 0.441908 43.6952 0.518728 45.0779 0.787599C45.6733 0.902829 46.7103 1.15249 47.6322 1.40216C49.0149 1.78626 49.7447 2.05513 50.8586 2.47764C51.5308 2.72731 52.4142 3.13061 53.0864 3.41869C53.9891 3.80279 55.1414 4.43656 55.9864 4.89748C56.6586 5.26237 57.5036 5.80011 58.1373 6.22262C59.4433 7.06765 61.0565 8.35438 62.2472 9.35305C63.0922 10.0636 64.1677 11.0815 64.8783 11.9073C65.5505 12.6755 66.4723 13.7126 67.1061 14.5192C67.6246 15.1914 68.2968 16.1132 68.7577 16.8238C69.2955 17.6496 69.9677 18.7827 70.4478 19.6469C70.8703 20.3959 71.3696 21.433 71.7345 22.2396C72.1378 23.1231 72.5987 24.333 72.9252 25.2548C73.2133 26.0806 73.5206 27.2329 73.7702 28.078C74.0583 29.019 74.2888 30.3057 74.4424 31.266C74.5961 32.1494 74.7113 33.3593 74.8265 34.262C74.961 35.2606 74.9802 36.5858 74.961 37.5845C74.9226 39.5434 74.8841 41.2142 74.3464 44.287C74.1928 45.1704 73.9239 46.3228 73.6934 47.187C73.4438 48.128 73.0789 49.3571 72.7332 50.2598C72.4067 51.0664 72.0034 52.1611 71.6385 52.9485C71.2352 53.8319 70.6782 55.0034 70.1789 55.8292C69.2955 57.2696 68.0471 59.1709 67.0485 60.5345C66.4723 61.3219 65.6081 62.2629 64.9551 62.9927C64.4174 63.6073 63.63 64.3755 63.0346 64.9324C62.3048 65.6046 61.3062 66.4688 60.538 67.0642C58.3486 68.7734 56.4857 69.8489 55.5447 70.3675C54.9877 70.6747 54.2195 71.078 53.6242 71.3469C53.048 71.5966 52.2798 71.9615 51.7037 72.1919C51.1851 72.4032 50.4745 72.6913 49.9176 72.8641C49.5143 72.9986 48.9573 73.1906 48.554 73.3058C47.7474 73.5363 46.6719 73.8436 45.8461 74.0356C45.3084 74.1316 43.9064 74.4197 42.466 74.6118Z" fill="white"/>
</mask>
<g mask="url(#mask2_23_24)">
<path d="M41.5825 74.7654C40.219 74.7654 38.7978 74.3621 37.3958 73.5747C28.7728 74.727 20.5722 72.3456 14.3114 66.8529C11.0081 63.953 8.41544 60.3616 6.59096 56.1749C4.70887 51.8346 3.76782 47.0717 3.76782 42.0208V41.848L3.90226 41.9248C12.9862 47.0909 35.4369 49.2419 53.9698 46.7644L54.085 46.7452V46.8605C54.0658 60.2848 50.6473 70.5979 45.1739 73.7859C44.0024 74.4389 42.8117 74.7654 41.5825 74.7654ZM37.4151 73.3634L37.4343 73.3826C40.123 74.8998 42.6772 74.9767 45.0202 73.6131C50.4169 70.4827 53.7969 60.2656 53.8354 46.9565C35.3985 49.4147 13.0823 47.2638 3.90226 42.1552C3.92146 47.1293 4.86251 51.7962 6.70619 56.0789C8.51147 60.2464 11.1041 63.8185 14.3882 66.6801C20.6106 72.1343 28.7728 74.5157 37.3574 73.3634H37.4151Z" fill="#EFD9FF"/>
<path d="M37.5687 73.9012C30.5205 73.9012 23.7027 72.8065 20.3994 70.9244L20.4954 70.7515C25.0662 73.3442 36.3972 74.4389 45.7309 73.1906L45.7501 73.3826C43.119 73.7283 40.315 73.9012 37.5687 73.9012Z" fill="#EFD9FF"/>
<path d="M37.6839 64.7212C25.6232 64.7212 14.0041 62.8391 8.33862 59.6318L8.43465 59.459C16.2703 63.9146 35.6482 65.7774 51.646 63.6265L51.6652 63.8185C47.1904 64.4331 42.4084 64.7212 37.6839 64.7212Z" fill="#EFD9FF"/>
<path d="M32.5562 74.5925C30.386 74.5925 28.3119 73.9588 26.4106 72.6912C20.2842 68.6006 16.6352 58.6716 16.6544 46.1307H16.8465C16.8273 58.5947 20.4378 68.4661 26.5066 72.5376C29.7523 74.7078 33.4972 74.9959 37.3575 73.4018L37.4343 73.5747C35.7826 74.2469 34.1502 74.5925 32.5562 74.5925Z" fill="#EFD9FF"/>
<path d="M36.6468 75.0343C36.6276 75.0343 36.6276 75.0343 36.6084 75.0343C35.1104 74.8422 34.6111 60.2656 34.6303 47.8591H34.8223C34.7839 65.4125 35.7058 74.727 36.6276 74.8422C36.7044 74.8422 36.9541 74.7846 37.2998 73.4402L37.4918 73.4979C37.223 74.5541 36.9541 75.0343 36.6468 75.0343Z" fill="#EFD9FF"/>
<path d="M41.5826 74.7654C40.1998 74.7654 38.7786 74.3621 37.3575 73.5555L37.1078 73.421L37.3959 73.3826C41.4481 72.8449 45.3275 71.5389 48.9381 69.6376C52.0301 64.7596 53.8546 56.6358 53.8738 46.8605V46.7836L53.9506 46.7644C60.6724 45.8618 66.1266 44.4406 69.7756 42.7122C70.563 39.5625 71.0047 36.2785 71.0047 32.9752V32.8024L71.1391 32.8792C74.0007 34.4924 75.3066 36.3169 74.9609 38.1222C74.6344 39.8122 72.8676 41.4254 69.9292 42.8274C66.9908 54.3888 59.136 64.4523 49.0533 69.7913C47.901 71.5773 46.5951 72.9409 45.1355 73.7859C44.0024 74.4389 42.8117 74.7654 41.5826 74.7654ZM37.7031 73.5171C40.2958 74.8998 42.7541 74.9382 45.0395 73.6131C46.403 72.8257 47.6321 71.5773 48.7268 69.9641C45.2699 71.7502 41.5634 72.9793 37.7031 73.5171ZM54.0466 46.9373C54.0274 56.5206 52.2606 64.5291 49.2454 69.4456C59.0976 64.1258 66.7796 54.2544 69.6987 42.9234C66.0498 44.6327 60.6724 46.0538 54.0466 46.9373ZM71.1967 33.1289C71.1775 36.3553 70.755 39.5241 70.006 42.5969C72.7907 41.2334 74.4808 39.697 74.7881 38.0838C75.1146 36.3937 73.8662 34.6845 71.1967 33.1289Z" fill="#EFD9FF"/>
<path d="M45.75 73.3826L45.7308 73.1906C51.838 72.3647 55.8519 70.7131 56.2168 68.8502C56.3896 68.0052 55.7367 67.141 54.3539 66.3536L54.4499 66.1807C55.9095 67.0065 56.5817 67.9476 56.4088 68.8694C56.0055 70.8283 51.9341 72.5568 45.75 73.3826Z" fill="#EFD9FF"/>
<path d="M51.6844 63.8377L51.6652 63.6457C62.132 62.2437 69.0266 59.3629 69.6411 56.1557C69.9292 54.6769 68.8153 53.1789 66.4147 51.8154L66.5107 51.6425C68.9882 53.0445 70.1213 54.6193 69.814 56.1749C69.1994 59.4782 62.2472 62.4165 51.6844 63.8377Z" fill="#EFD9FF"/>
<path d="M42.3892 74.0356C40.7376 74.0356 39.0667 73.8819 37.3959 73.5746L37.4343 73.3826C45.0203 74.7846 52.3182 72.9793 58.0221 68.2548C64.7246 62.6854 68.5849 53.6014 68.6041 43.3075H68.7961C68.7769 53.659 64.8975 62.8006 58.1373 68.4085C53.6625 72.0959 48.1891 74.0356 42.3892 74.0356Z" fill="#EFD9FF"/>
<path d="M38.2793 73.5746C37.9912 73.5746 37.6839 73.5746 37.3959 73.5554V73.3634C47.613 73.5938 57.1579 69.8873 64.2637 62.9543C70.9855 56.3861 74.7113 47.6286 74.7305 38.295H74.9225C74.9033 47.667 71.1775 56.4822 64.3982 63.0887C57.4651 69.8681 48.2275 73.5746 38.2793 73.5746Z" fill="#EFD9FF"/>
<path d="M37.3767 73.5747L37.3575 73.5555C28.2351 68.3701 20.8411 47.9936 20.8795 28.1164V28.0395L20.9564 28.0203C39.5084 25.5237 62.0359 27.6939 71.1391 32.8792L71.1967 32.8984V32.956C71.1583 52.8332 56.0056 71.0588 37.4151 73.5555L37.3767 73.5747ZM21.0716 28.2124C21.0524 47.9744 28.3695 68.2165 37.4151 73.3826C55.8903 70.886 70.9279 52.7948 71.0047 33.0329C61.9015 27.8859 39.5468 25.7349 21.0716 28.2124Z" fill="#EFD9FF"/>
<path d="M54.3347 66.3536C49.7639 63.7609 38.4329 62.6662 29.0993 63.9146L29.0801 63.7225C38.4521 62.455 49.8407 63.5689 54.4307 66.1807L54.3347 66.3536Z" fill="#EFD9FF"/>
<path d="M66.4339 51.8346C58.5983 47.379 39.2204 45.5162 23.2226 47.6671L23.2034 47.4751C39.2396 45.3241 58.6751 47.2062 66.5491 51.681L66.4339 51.8346Z" fill="#EFD9FF"/>
<path d="M37.4343 73.5555L37.3575 73.3826C48.7461 68.639 58.0413 48.6658 58.0797 28.8654H58.2718C58.2526 48.7234 48.8997 68.7926 37.4343 73.5555Z" fill="#EFD9FF"/>
<path d="M37.4919 73.4978L37.2999 73.4402C38.7979 67.7363 40.0654 46.9373 40.1038 27.1177H40.2959C40.2574 46.9565 39.0091 67.7747 37.4919 73.4978Z" fill="#EFD9FF"/>
<path d="M33.1708 73.8436C26.1033 73.8436 19.5352 71.4238 14.2922 66.8337C10.9889 63.9338 8.39626 60.3424 6.57178 56.1557C4.68969 51.8346 3.74864 47.091 3.74864 42.0592C0.9255 40.446 -0.380443 38.6407 -0.0347519 36.8547C0.69504 33.0521 8.74195 29.672 20.9756 28.0204L21.0908 28.0012V28.1164C21.0524 47.9168 28.4079 68.2357 37.4727 73.3827L37.7224 73.5171L37.4343 73.5555C35.9939 73.7476 34.5727 73.8436 33.1708 73.8436ZM20.8795 28.2316C8.79957 29.864 0.867885 33.1865 0.157299 36.8931C-0.169187 38.6023 1.11755 40.35 3.88308 41.9248L3.94069 41.944V42.0016C3.94069 47.0334 4.88174 51.777 6.74463 56.0789C8.5499 60.2464 11.1426 63.8186 14.4266 66.6801C20.5915 72.0767 28.6384 74.4581 37.127 73.3827C28.1198 68.0245 20.8795 47.8976 20.8795 28.2316Z" fill="#EFD9FF"/>
<path d="M20.3994 70.9244C18.9399 70.0986 18.2677 69.1576 18.4405 68.2357C18.8246 66.296 22.8961 64.5676 29.0801 63.7418L29.0993 63.9338C22.9921 64.7596 18.9783 66.4113 18.6134 68.2741C18.4405 69.1192 19.0935 69.9834 20.4763 70.7708L20.3994 70.9244Z" fill="#EFD9FF"/>
<path d="M8.35786 59.6319C5.88041 58.2299 4.74731 56.6551 5.05459 55.0995C5.68836 51.8154 12.6406 48.877 23.2034 47.4559L23.2226 47.6479C12.7558 49.0499 5.8612 51.9306 5.24664 55.1379C4.95857 56.6167 6.07246 58.1147 8.47309 59.4782L8.35786 59.6319Z" fill="#EFD9FF"/>
<path d="M37.3767 73.5555C20.1305 70.3483 6.13006 51.5658 6.16847 31.6885H6.36053C6.32212 51.4889 20.265 70.1946 37.4343 73.3827L37.3767 73.5555Z" fill="#EFD9FF"/>
<path d="M37.3959 73.5747C16.7505 73.1138 -0.0347432 56.559 0.00366686 36.6818H0.195717C0.157307 56.463 16.8465 72.9409 37.3959 73.3827V73.5747Z" fill="#EFD9FF"/>
<path d="M37.7608 47.9936C23.7987 47.9936 10.336 45.8234 3.78705 42.0977L3.72943 42.0785V42.0208C3.78705 22.1244 18.9398 3.91804 37.5303 1.42139H37.5687L37.5879 1.44059C46.7103 6.62595 54.1042 27.0025 54.0658 46.8797V46.9565L53.989 46.9757C48.746 47.6479 43.215 47.9936 37.7608 47.9936ZM3.94069 41.9632C13.0439 47.091 35.3985 49.2419 53.8738 46.7837C53.893 27.0217 46.5759 6.77959 37.5303 1.61344C19.0551 4.11009 3.9983 22.2012 3.94069 41.9632Z" fill="#EFD9FF"/>
<path d="M37.7608 28.4045C25.7 28.4045 14.081 26.5224 8.41547 23.3151L8.51149 23.1423C16.3471 27.5978 35.725 29.4607 51.7228 27.3098L51.742 27.5018C47.2481 28.1164 42.466 28.4045 37.7608 28.4045Z" fill="#EFD9FF"/>
<path d="M37.684 11.7729C30.6357 11.7729 23.8179 10.6782 20.5146 8.79614L20.6107 8.62329C25.1815 11.216 36.5124 12.3107 45.8461 11.0623L45.8653 11.2544C43.2342 11.6001 40.4303 11.7729 37.684 11.7729Z" fill="#EFD9FF"/>
<path d="M16.8465 46.1307H16.6544C16.6928 26.2535 26.0457 6.18424 37.4919 1.42139L37.5687 1.59423C26.1801 6.33788 16.8849 26.3111 16.8465 46.1307Z" fill="#EFD9FF"/>
<path d="M34.8224 47.8592H34.6304C34.6688 28.0204 35.9171 7.20211 37.4343 1.479L37.6264 1.53662C36.1284 7.24052 34.8608 28.0204 34.8224 47.8592Z" fill="#EFD9FF"/>
<path d="M53.8546 46.9757V46.8605C53.893 27.0601 46.5375 6.74114 37.4727 1.59419L37.223 1.45976L37.5111 1.42135C46.1534 0.249841 54.3731 2.65047 60.634 8.14311C63.9372 11.0431 66.5299 14.6344 68.3544 18.8211C70.2365 23.1423 71.1775 27.8859 71.1775 32.9176C74.0007 34.5308 75.3066 36.3361 74.9609 38.1222C74.2311 41.9248 66.1842 45.3049 53.9506 46.9565L53.8546 46.9757ZM37.8184 1.57499C46.8063 6.97161 54.0466 27.0985 54.0466 46.7645C66.1266 45.132 74.0583 41.8096 74.7689 38.103C75.0954 36.3937 73.8086 34.6461 71.0431 33.0713L70.9855 33.052V32.9944C70.9855 27.9627 70.0444 23.2191 68.1815 18.9171C66.3763 14.7496 63.7836 11.1775 60.4995 8.31596C54.3539 2.88093 46.307 0.499506 37.8184 1.57499Z" fill="#EFD9FF"/>
<path d="M51.7612 27.521L51.742 27.329C62.2088 25.927 69.1034 23.0462 69.7179 19.839C70.006 18.3602 68.8921 16.8622 66.4915 15.4986L66.5875 15.3258C69.065 16.7278 70.198 18.3026 69.8908 19.8582C69.257 23.1615 62.3048 26.0998 51.7612 27.521Z" fill="#EFD9FF"/>
<path d="M45.8653 11.2352L45.8461 11.0431C51.9533 10.2173 55.9671 8.56565 56.332 6.70276C56.5049 5.85774 55.8519 4.99351 54.4691 4.20611L54.5652 4.03326C56.0247 4.85908 56.6969 5.80013 56.5241 6.72197C56.1208 8.68088 52.0493 10.4093 45.8653 11.2352Z" fill="#EFD9FF"/>
<path d="M68.7769 43.2884H68.5849C68.6233 23.488 54.6804 4.78225 37.5111 1.59421L37.5495 1.40216C54.8148 4.62861 68.8153 23.4111 68.7769 43.2884Z" fill="#EFD9FF"/>
<path d="M74.9225 38.3142H74.7305C74.7689 18.533 58.0797 2.05509 37.5303 1.61338V1.42133C58.195 1.86304 74.961 18.4178 74.9225 38.3142Z" fill="#EFD9FF"/>
<path d="M71.1967 33.1289L71.0623 33.0521C61.9783 27.8859 39.5276 25.7349 20.9947 28.2124L20.8795 28.2316V28.1164C20.8987 14.692 24.3172 4.37894 29.7907 1.1909C32.1721 -0.191863 34.8416 -0.115043 37.5495 1.40216C46.1726 0.249853 54.3731 2.63128 60.6339 8.12392C63.9372 11.0239 66.5299 14.6152 68.3544 18.8019C70.2365 23.1423 71.1967 27.9051 71.1775 32.956L71.1967 33.1289ZM37.1654 26.9833C51.0122 26.9833 64.3981 29.115 71.0047 32.8024C70.9855 27.8283 70.0444 23.1615 68.2007 18.8787C66.3955 14.7112 63.8028 11.1391 60.5187 8.27756C54.2963 2.82333 46.1341 0.441903 37.5495 1.59421H37.5111L37.4919 1.575C34.8032 0.0578028 32.2681 -0.0190174 29.9059 1.34454C24.5093 4.47496 21.1292 14.692 21.0908 28.0011C26.2569 27.3098 31.7496 26.9833 37.1654 26.9833Z" fill="#EFD9FF"/>
<path d="M66.4915 15.4987C58.6558 11.0431 39.2779 9.18021 23.2801 11.3312L23.2609 11.1391C39.2971 8.98816 58.7326 10.8703 66.6067 15.345L66.4915 15.4987Z" fill="#EFD9FF"/>
<path d="M54.4499 4.22529C49.8791 1.61341 38.5674 0.537926 29.2145 1.78625L29.1953 1.5942C38.5674 0.326671 49.956 1.44056 54.546 4.05245L54.4499 4.22529Z" fill="#EFD9FF"/>
<path d="M58.2717 28.8461H58.0797C58.0989 16.3821 54.4883 6.51069 48.4195 2.43922C45.1739 0.269049 41.4289 -0.0190268 37.5687 1.57499L37.4919 1.40215C41.4097 -0.230282 45.2123 0.0769979 48.5156 2.28558C54.6612 6.39546 58.3101 16.3245 58.2717 28.8461Z" fill="#EFD9FF"/>
<path d="M40.2958 27.1177H40.1038C40.1422 9.5643 39.2203 0.249857 38.2985 0.134626C38.2217 0.134626 37.972 0.192241 37.6263 1.53659L37.4343 1.47898C37.7223 0.365087 38.0104 -0.0958341 38.3177 -0.057424C39.8157 0.134626 40.315 14.692 40.2958 27.1177Z" fill="#EFD9FF"/>
<path d="M3.94067 42.1745L3.80623 42.0977C0.944681 40.4844 -0.361261 38.66 -0.0155703 36.8547C0.310915 35.1646 2.07778 33.5514 5.01615 32.1494C7.93532 20.588 15.7902 10.5246 25.8728 5.18557C27.0251 3.3995 28.3311 2.03595 29.7907 1.19092C32.1721 -0.191838 34.8608 -0.115018 37.5687 1.42138L37.8184 1.55582L37.5303 1.59423C33.478 2.13197 29.5986 3.43791 25.9881 5.33921C22.896 10.2173 21.0716 18.341 21.0524 28.1164V28.1932L20.9755 28.2124C14.2538 29.1151 8.79954 30.5362 5.15059 32.2647C4.36318 35.4143 3.92146 38.6984 3.92146 42.0016L3.94067 42.1745ZM4.93933 32.3799C2.1546 33.7435 0.464556 35.2799 0.157275 36.8931C-0.16921 38.5831 1.07912 40.2924 3.74862 41.848C3.76782 38.6215 4.17113 35.4527 4.93933 32.3799ZM25.6808 5.51206C15.8286 10.8319 8.14657 20.7032 5.22741 32.0342C8.87636 30.325 14.273 28.923 20.8795 28.0204C20.9179 18.437 22.6656 10.4478 25.6808 5.51206ZM33.3628 0.384313C32.1721 0.384313 31.0006 0.710799 29.8867 1.36377C28.5231 2.15118 27.294 3.3995 26.1993 5.01273C29.6562 3.22666 33.3628 1.99754 37.223 1.44059C35.9171 0.749208 34.6111 0.384313 33.3628 0.384313Z" fill="#EFD9FF"/>
<path d="M8.41541 23.3152C5.93796 21.9132 4.80487 20.3384 5.11215 18.7828C5.74591 15.4987 12.6981 12.5603 23.2609 11.1392L23.2801 11.3312C12.8134 12.7332 5.91876 15.6139 5.3042 18.8212C5.01612 20.3 6.13002 21.798 8.53065 23.1615L8.41541 23.3152Z" fill="#EFD9FF"/>
<path d="M20.5146 8.77692C19.055 7.95111 18.3828 7.01006 18.5557 6.08822C18.9398 4.14851 23.0113 2.42006 29.1953 1.59424L29.2145 1.78629C23.1073 2.61211 19.0934 4.26374 18.7285 6.12663C18.5557 6.97165 19.2087 7.83588 20.5914 8.62328L20.5146 8.77692Z" fill="#EFD9FF"/>
<path d="M6.36051 31.6886H6.16846C6.18766 21.337 10.0671 12.1954 16.8273 6.58756C22.5696 1.82471 29.9251 0.000235498 37.5687 1.42141L37.5303 1.61346C29.9443 0.211491 22.6464 2.01676 16.9425 6.7412C10.2399 12.2915 6.37971 21.3947 6.36051 31.6886Z" fill="#EFD9FF"/>
<path d="M0.195713 36.6626H0.00366211C0.0228671 27.2906 3.74864 18.4755 10.528 11.8689C17.6723 4.89749 27.2556 1.19092 37.5303 1.40217V1.59422C27.3132 1.36376 17.7683 5.07034 10.6625 12.0034C3.9407 18.5715 0.214918 27.329 0.195713 36.6626Z" fill="#EFD9FF"/>
</g>
<mask id="mask3_23_24" style="mask-type:luminance" maskUnits="userSpaceOnUse" x="0" y="0" width="75" height="75">
<path d="M42.466 74.6118C39.8733 74.9575 37.7224 74.9767 36.378 74.9383C33.2476 74.823 31.3271 74.4581 29.9059 74.1893C29.2338 74.0548 27.9662 73.7476 27.2364 73.5363C26.2954 73.2674 25.0471 72.8449 24.1252 72.4992C23.453 72.2495 22.5504 71.8655 21.8974 71.5582C21.014 71.1357 19.8617 70.5403 18.9975 70.0794C9.85587 64.8748 3.82548 54.6193 3.84469 42.0208C3.8831 22.1436 18.9783 4.01405 37.5495 1.51739C18.9783 4.01405 3.8831 22.1436 3.84469 42.0208C3.82548 54.6193 9.85587 64.894 18.9975 70.0794C18.9975 70.0794 17.5379 69.3496 14.7916 67.2947C13.7929 66.5457 12.5254 65.451 11.6227 64.6059C10.8545 63.8762 9.85587 62.8775 9.2029 62.0709C8.12741 60.7649 6.76385 58.9597 5.82281 57.5577C5.26586 56.7127 4.61289 55.5412 4.15197 54.6385C3.71025 53.7743 3.1341 52.6028 2.78841 51.7002C2.17385 50.0485 1.46326 47.8207 1.00234 46.1115C0.752676 45.1704 0.522216 43.8645 0.387781 42.8851C0.15732 41.2526 0.0612949 39.0632 0.00367975 37.4308C-0.0155253 36.509 0.0420892 35.2799 0.138114 34.3772C0.23414 33.3978 0.34937 32.0726 0.560626 31.1124C0.752676 30.2481 0.963932 29.0766 1.17519 28.2124C1.42485 27.2714 1.77054 26.023 2.11623 25.1204C2.71159 23.488 3.67184 21.3754 4.44004 19.8198C4.86256 18.9556 5.55394 17.8801 6.07247 17.0735C6.61021 16.2477 7.35921 15.1722 7.97377 14.404C9.03005 13.1364 10.4896 11.4848 11.6611 10.3517C11.9684 10.0444 13.6777 8.412 16.1935 6.66434C17.0386 6.06898 18.2101 5.3584 19.1127 4.83986C19.6696 4.51338 20.4571 4.11007 21.0524 3.82199C22.8193 2.93856 26.5258 1.34454 31.3847 0.518728C33.9774 0.0770122 35.9939 0.0386024 36.9734 0.0193973C38.6826 -0.0190127 40.7952 0.134627 42.0243 0.288267C43.2342 0.441908 43.6952 0.518728 45.0779 0.787599C45.6733 0.902829 46.7103 1.15249 47.6322 1.40216C49.0149 1.78626 49.7447 2.05513 50.8586 2.47764C51.5308 2.72731 52.4142 3.13061 53.0864 3.41869C53.9891 3.80279 55.1414 4.43656 55.9864 4.89748C56.6586 5.26237 57.5036 5.80011 58.1373 6.22262C59.4433 7.06765 61.0565 8.35438 62.2472 9.35305C63.0922 10.0636 64.1677 11.0815 64.8783 11.9073C65.5505 12.6755 66.4723 13.7126 67.1061 14.5192C67.6246 15.1914 68.2968 16.1132 68.7577 16.8238C69.2955 17.6496 69.9677 18.7827 70.4478 19.6469C70.8703 20.3959 71.3696 21.433 71.7345 22.2396C72.1378 23.1231 72.5987 24.333 72.9252 25.2548C73.2133 26.0806 73.5206 27.2329 73.7702 28.078C74.0583 29.019 74.2888 30.3057 74.4424 31.266C74.5961 32.1494 74.7113 33.3593 74.8265 34.262C74.961 35.2606 74.9802 36.5858 74.961 37.5845C74.9226 39.5434 74.8841 41.2142 74.3464 44.287C74.1928 45.1704 73.9239 46.3228 73.6934 47.187C73.4438 48.128 73.0789 49.3571 72.7332 50.2598C72.4067 51.0664 72.0034 52.1611 71.6385 52.9485C71.2352 53.8319 70.6782 55.0034 70.1789 55.8292C69.2955 57.2696 68.0471 59.1709 67.0485 60.5345C66.4723 61.3219 65.6081 62.2629 64.9551 62.9927C64.4174 63.6073 63.63 64.3755 63.0346 64.9324C62.3048 65.6046 61.3062 66.4688 60.538 67.0642C58.3486 68.7734 56.4857 69.8489 55.5447 70.3675C54.9877 70.6747 54.2195 71.078 53.6242 71.3469C53.048 71.5966 52.2798 71.9615 51.7037 72.1919C51.1851 72.4032 50.4745 72.6913 49.9176 72.8641C49.5143 72.9986 48.9573 73.1906 48.554 73.3058C47.7474 73.5363 46.6719 73.8436 45.8461 74.0356C45.3084 74.1316 43.9064 74.4197 42.466 74.6118Z" fill="white"/>
</mask>
<g mask="url(#mask3_23_24)">
<path d="M37.4919 75.0535C37.0694 75.0535 36.7045 75.0535 36.3781 75.0343C33.2476 74.9191 31.3079 74.5542 29.8867 74.2853C29.2146 74.1508 27.947 73.8436 27.2172 73.6323C26.2378 73.3442 24.9895 72.9217 24.0868 72.5952C23.3378 72.3072 22.4736 71.9423 21.8398 71.6542C21.014 71.2701 19.8425 70.6555 18.9399 70.1754C18.9207 70.1562 18.9015 70.1562 18.8823 70.137C18.4982 69.9449 17.0194 69.0807 14.7148 67.3907C13.7929 66.7185 12.5446 65.643 11.5459 64.6828C11.0658 64.2411 9.8943 63.0887 9.1069 62.1285C8.18506 60.9954 6.74468 59.1325 5.72681 57.6153C5.15066 56.7511 4.47848 55.5412 4.05597 54.6961C3.61426 53.8511 3.03811 52.6604 2.69241 51.7386C2.07785 50.1061 1.36727 47.8592 0.906345 46.1499C0.69509 45.3817 0.483835 44.3062 0.291785 42.9043C0.0997345 41.6175 -0.0154957 39.7738 -0.0923158 37.45C-0.130726 36.4706 -0.0539064 35.2222 0.0421188 34.3772L0.0613243 34.1083C0.157349 33.1673 0.27258 31.9958 0.445425 31.0932C0.50304 30.8243 0.560655 30.517 0.637475 30.1905C0.771911 29.4991 0.925551 28.7693 1.07919 28.174C1.23283 27.5978 1.61693 26.1575 2.02024 25.082C2.78844 22.9886 3.99836 20.492 4.36325 19.7814C4.78576 18.9172 5.49635 17.8033 5.99568 17.0351C6.32217 16.5357 7.16719 15.249 7.91618 14.3656C8.89564 13.1941 10.3936 11.504 11.6228 10.2941C11.93 9.98681 13.6393 8.35438 16.1744 6.60672C17.0578 5.99216 18.2485 5.28158 19.0935 4.78225C19.6313 4.47496 20.3418 4.11007 21.0332 3.76438C22.8001 2.88095 26.5067 1.26772 31.3847 0.461112C33.9966 0.0193957 36.0132 -0.0190148 36.9734 -0.0382199C38.6827 -0.0766299 40.8144 0.0770107 42.0243 0.230651C43.2535 0.384291 43.6952 0.461111 45.0779 0.729982C45.6925 0.845212 46.7104 1.09488 47.6322 1.34454C49.015 1.72864 49.7448 1.99751 50.8587 2.42003C51.3772 2.61208 52.0302 2.90015 52.5871 3.14982C52.7599 3.22664 52.9328 3.30346 53.0864 3.36107C53.9699 3.74517 55.103 4.35973 55.9864 4.85907C56.6586 5.22396 57.5228 5.78091 58.1566 6.18421C59.5009 7.04844 61.1525 8.37359 62.2664 9.33384C63.0346 10.006 64.1485 11.0239 64.9167 11.8881L65.2624 12.2722C65.8962 13.002 66.6068 13.8086 67.1637 14.5C67.6439 15.1146 68.2968 16.0172 68.8154 16.8046C69.3339 17.5728 70.0061 18.7059 70.5054 19.6277C70.8895 20.3383 71.408 21.3754 71.7921 22.2204C72.1762 23.0654 72.6564 24.2754 72.9828 25.2356C73.1941 25.8118 73.3862 26.5416 73.5974 27.2329C73.6742 27.521 73.7703 27.8091 73.8471 28.0588C74.116 28.9806 74.3656 30.2481 74.5385 31.266C74.6345 31.8806 74.7305 32.6296 74.8073 33.3401C74.8457 33.6666 74.8842 33.9739 74.9226 34.262C75.057 35.3183 75.0762 36.6818 75.057 37.6037C75.0186 39.5626 74.9802 41.2526 74.4424 44.3254C74.2888 45.1704 74.0391 46.342 73.7895 47.2254C73.4246 48.5505 73.0981 49.5876 72.8292 50.3174L72.6372 50.7975C72.3491 51.5273 72.0226 52.3723 71.7345 53.0253C71.2928 54.0048 70.7551 55.1187 70.2749 55.9061C69.3531 57.4233 68.0856 59.3054 67.1445 60.6113C66.7028 61.2067 66.0882 61.9172 65.5313 62.5318C65.3585 62.7239 65.2048 62.8967 65.0512 63.0695C64.379 63.8377 63.3995 64.7404 63.1115 65.0092C62.3049 65.7582 61.3254 66.5841 60.5956 67.1602C59.0016 68.4085 57.3499 69.484 55.5831 70.4635C54.7573 70.9244 54.1235 71.2509 53.6626 71.4429C53.5089 71.5198 53.3361 71.5966 53.1441 71.6734C52.6831 71.8847 52.1646 72.1151 51.7421 72.288C51.4156 72.4224 50.5898 72.7489 49.956 72.9601C49.8216 72.9986 49.6871 73.0562 49.5527 73.0946C49.2262 73.2098 48.8805 73.325 48.5925 73.4019C47.8435 73.6131 46.7296 73.9204 45.8845 74.1316C45.3468 74.2661 43.9448 74.5542 42.5045 74.7462C40.5071 74.9767 38.7787 75.0535 37.4919 75.0535ZM19.0359 69.9834C19.9385 70.4827 21.11 71.078 21.9359 71.4621C22.5504 71.7502 23.4146 72.1151 24.1636 72.4032C25.0471 72.7297 26.2954 73.1522 27.2749 73.4403C27.9854 73.6515 29.253 73.9588 29.9252 74.0932C31.3271 74.3621 33.2476 74.7462 36.3781 74.8422C37.7224 74.8806 39.8734 74.8806 42.466 74.5157C43.9064 74.3237 45.2892 74.0356 45.8269 73.9012C46.672 73.6899 47.7666 73.4018 48.5156 73.1714C48.8037 73.0946 49.1302 72.9793 49.4567 72.8641C49.6103 72.8065 49.7448 72.7681 49.8792 72.7297C50.513 72.5184 51.3196 72.1919 51.6461 72.0575C52.0686 71.8847 52.5871 71.6542 53.048 71.4429C53.2209 71.3661 53.4129 71.2893 53.5666 71.2125C54.0275 71.0012 54.642 70.6939 55.4679 70.233C57.2347 69.2536 58.8672 68.1781 60.4612 66.949C61.1718 66.392 62.1512 65.547 62.9578 64.8172C63.7068 64.1258 64.4174 63.4152 64.8783 62.8967C65.032 62.7239 65.1856 62.551 65.3585 62.359C65.8962 61.7444 66.53 61.053 66.9525 60.4577C67.8935 59.1517 69.161 57.2696 70.0829 55.7524C70.563 54.965 71.0816 53.8511 71.5425 52.8909C71.8306 52.2379 72.157 51.4121 72.4451 50.6823L72.6372 50.2022C72.9252 49.4916 73.2325 48.4545 73.5974 47.1294C73.8279 46.2459 74.0967 45.0744 74.2504 44.2486C74.7881 41.195 74.8265 39.505 74.865 37.5652C74.8842 36.6434 74.8649 35.2799 74.7305 34.2428C74.6921 33.9547 74.6537 33.6474 74.6153 33.3209C74.5385 32.6104 74.4424 31.8614 74.3464 31.266C74.1736 30.2673 73.9431 28.9998 73.6742 28.0972C73.5974 27.8475 73.5206 27.5594 73.4246 27.2713C73.2325 26.58 73.0213 25.8694 72.81 25.2932C72.4835 24.333 72.0034 23.1231 71.6193 22.2972C71.2544 21.4714 70.7359 20.4344 70.3518 19.7238C69.8524 18.8211 69.1803 17.688 68.6617 16.9198C68.1432 16.1324 67.4902 15.2298 67.0101 14.6344C66.4723 13.9623 65.7618 13.1364 65.128 12.4259L64.7823 12.0417C64.0141 11.1775 62.9194 10.1597 62.1512 9.50669C61.0565 8.56564 59.3857 7.24049 58.0605 6.37626C57.446 5.97296 56.5817 5.43522 55.9096 5.05112C55.0261 4.57099 53.893 3.95643 53.0096 3.57233C52.856 3.49551 52.6831 3.43789 52.5103 3.36107C51.9533 3.11141 51.3004 2.84254 50.7818 2.65049C49.6679 2.24718 48.9381 1.97831 47.5746 1.59421C46.6527 1.32534 45.6349 1.09488 45.0203 0.979648C43.6568 0.710777 43.1958 0.653162 41.9859 0.480316C40.776 0.326676 38.6634 0.173036 36.9542 0.211446C35.9939 0.230651 33.9774 0.269061 31.3847 0.710777C26.5451 1.51739 22.8577 3.11141 21.0908 3.99484C20.3995 4.34053 19.6889 4.70543 19.1703 5.01271C18.3253 5.51204 17.1346 6.22262 16.2704 6.83718C13.7545 8.58484 12.0645 10.1981 11.7572 10.5053C10.5281 11.6961 9.04928 13.3861 8.06983 14.5576C7.34003 15.441 6.49501 16.7086 6.16853 17.2079C5.6692 17.9761 4.97781 19.0708 4.5553 19.935C3.82551 21.3946 2.84605 23.5648 2.23149 25.2164C1.82819 26.2919 1.44409 27.7323 1.29045 28.2892C1.13681 28.8846 1.00237 29.5952 0.848731 30.2865C0.791115 30.613 0.714295 30.9011 0.65668 31.1892C0.46463 32.0726 0.368605 33.2249 0.272579 34.166L0.253375 34.4348C0.176555 35.2799 0.0997342 36.509 0.118939 37.4884C0.195759 39.8122 0.31099 41.6559 0.50304 42.9235C0.69509 44.3062 0.906346 45.3817 1.1176 46.1307C1.57852 47.8399 2.30831 50.0677 2.90367 51.7002C3.24936 52.622 3.82551 53.8127 4.26723 54.6385C4.70894 55.4836 5.36192 56.6743 5.93807 57.5385C6.93673 59.0557 8.37711 60.9186 9.29895 62.0517C10.0672 62.9927 11.2579 64.1258 11.7188 64.5867C12.3141 65.1629 13.0055 65.7775 13.6585 66.3152C7.55129 60.6305 3.95995 52.2763 3.7871 42.885C3.7871 42.8274 3.7871 42.7506 3.7871 42.693C3.7871 42.5009 3.7871 42.3281 3.7871 42.1361C3.7871 42.1168 3.7871 42.0976 3.7871 42.0592C3.7871 22.1244 18.9399 3.91802 37.5304 1.42136L37.5496 1.61341C19.0551 4.11007 3.97915 22.2204 3.94074 42.0208C3.94074 42.04 3.94074 42.0592 3.94074 42.0976C3.94074 54.1776 9.58702 64.6059 19.0359 69.9834Z" fill="#EFD9FF"/>
</g>
</svg>
